<?xml version="1.0" encoding="utf-8"?>
<!-- Generator: Adobe Illustrator 28.0.0, SVG Export Plug-In . SVG Version: 6.00 Build 0)  -->
<svg version="1.1" id="Layer_1" xmlns="http://www.w3.org/2000/svg" xmlns:xlink="http://www.w3.org/1999/xlink" x="0px" y="0px"
	 viewBox="0 0 2502.2 1629.6" style="enable-background:new 0 0 2502.2 1629.6;" xml:space="preserve">
<style type="text/css">
	.st0{fill:none;stroke:#000000;stroke-width:10;stroke-miterlimit:10;}
	.st1{fill:#FFFFFF;stroke:#000000;stroke-width:7;stroke-miterlimit:10;}
	.st2{opacity:0.55;fill:#231F20;enable-background:new    ;}
	.st3{fill:none;stroke:#000000;stroke-width:7;stroke-miterlimit:10;}
	.st4{fill:#FFFFFF;stroke:#000000;stroke-width:10;stroke-miterlimit:10;}
	.st5{fill:#D6D6D6;}
</style>
<path class="st0" d="M2218.4,831.6"/>
<path class="st0" d="M2218.4,448.2"/>
<g>
	<polygon class="st1" points="790.2,322.8 420.7,138.7 18.8,336 393,522.5 	"/>
	<path class="st0" d="M391.9,520.7"/>
	<polygon class="st2" points="387,529.1 387,1627.6 35,1452.9 33.5,1429.2 16,1418.2 16,344 	"/>
	<polygon class="st0" points="387,529.1 387,1627.6 35,1452.9 33.5,1429.2 16,1418.2 16,344 	"/>
	<polyline class="st3" points="782.2,322.8 420.7,142.7 26.6,336 	"/>
	<line class="st0" x1="802.6" y1="353.5" x2="837.1" y2="370.5"/>
	<path class="st0" d="M800.1,1409.2"/>
	<g id="freezer_door">
		<polyline class="st4" points="800.1,1409.2 1198.6,1595.6 1198.6,1577.1 1198.7,983.4 1198.7,949.8 802.6,764.7 800.1,1409.2 		
			"/>
		<polygon class="st0" points="814,759.5 1200.5,954.1 1248.5,929.6 852.7,740.1 		"/>
		<polygon class="st0" points="1254.7,959.2 1254.7,937.2 1207.9,958 1207.9,1106.2 1208.6,1575 1208.6,1595.6 1255.5,1576.2 
			1255.5,1428.1 		"/>
	</g>
	<g id="fridge_door">
		<polygon class="st0" points="809.2,346 1200.6,550.4 1244.3,524.5 850,326.3 		"/>
		<polygon class="st4" points="1250,558.6 1250,532.7 1203.1,557.1 1203.1,744.3 1203.1,905.6 1203.1,931.6 1250,907.1 1250,719.9 
					"/>
		<polygon class="st4" points="802.6,530.5 802.6,740.1 1193.2,931.8 1193.4,902.5 1193.4,741.2 1193.4,554.5 802.6,353.5 
			802.6,394.8 		"/>
	</g>
	<polyline class="st0" points="758.6,348.1 793.2,330.8 795.7,1429.7 397.1,1627.6 397.1,1607.9 397.1,529 763.3,345.8 	"/>
	<polygon class="st0" points="791.8,528.7 791.8,738.3 404.7,930 404.5,900.7 404.5,739.4 404.5,547.9 791.8,351.8 791.8,393 	"/>
	<polygon class="st0" points="788.5,1413.8 404.6,1600.6 404.6,1581.1 404.6,987.4 404.6,953.8 791.8,763.7 	"/>
	<polygon class="st5" points="402.2,543.5 402.2,532.2 788,338.9 788,348 	"/>
	<polygon class="st5" points="402.2,936.7 402.2,949.5 789.2,759.4 789.2,745.1 	"/>
</g>
</svg>
