<?xml version="1.0" standalone="no"?>
<!DOCTYPE svg PUBLIC "-//W3C//DTD SVG 20010904//EN"
 "http://www.w3.org/TR/2001/REC-SVG-20010904/DTD/svg10.dtd">
<svg version="1.0" xmlns="http://www.w3.org/2000/svg"
 width="752.000000pt" height="752.000000pt" viewBox="0 0 752.000000 752.000000"
 preserveAspectRatio="xMidYMid meet">

<g transform="translate(0.000000,752.000000) scale(0.100000,-0.100000)"
fill="#000000" stroke="none">
<path d="M3034 5250 c-60 -12 -156 -53 -211 -91 -72 -49 -169 -145 -230 -226
l-54 -73 -67 0 c-220 -1 -465 -196 -611 -488 -75 -149 -130 -351 -146 -534
l-7 -78 -56 0 c-74 0 -125 -17 -172 -58 -76 -64 -103 -152 -76 -244 17 -61 71
-125 122 -146 22 -10 34 -25 48 -64 22 -64 105 -148 169 -173 l44 -17 6 -151
c4 -123 11 -174 35 -267 56 -218 107 -311 198 -356 36 -18 67 -19 447 -22 351
-2 417 -1 464 13 73 21 131 79 165 165 l25 64 22 -48 c11 -27 21 -52 21 -55 0
-18 76 -94 114 -114 41 -22 46 -22 476 -22 430 0 435 0 476 22 38 20 114 96
114 114 0 4 9 29 21 56 l21 48 26 -65 c35 -86 92 -144 165 -165 47 -14 113
-15 464 -13 380 3 411 4 447 22 91 45 142 138 198 356 24 93 31 144 35 267 l6
151 46 18 c62 24 145 109 168 174 13 37 25 52 47 62 81 33 146 152 132 240
-20 126 -121 208 -256 208 l-58 0 -7 78 c-30 338 -165 648 -365 835 -132 124
-264 186 -392 187 l-67 0 -54 73 c-224 300 -507 398 -770 266 -116 -59 -244
-175 -318 -288 -31 -49 -34 -51 -79 -51 -45 0 -48 1 -80 53 -18 28 -74 93
-124 142 -162 162 -345 230 -522 195z m261 -194 c74 -37 185 -133 233 -202
l22 -32 -66 -38 c-118 -69 -262 -221 -329 -347 -11 -20 -22 -37 -26 -37 -3 0
-23 28 -43 63 -79 134 -199 256 -323 328 -63 36 -63 37 32 137 159 168 330
212 500 128z m1263 -1 c57 -28 97 -58 153 -114 42 -42 81 -86 87 -98 11 -19 7
-24 -36 -49 -125 -72 -250 -199 -330 -337 l-39 -67 -53 88 c-67 108 -207 251
-302 306 l-68 38 22 32 c12 17 50 59 84 93 158 156 313 191 482 108z m-2006
-356 c215 -45 408 -261 507 -571 32 -103 61 -254 61 -325 l0 -43 -625 0 -625
0 0 38 c0 59 27 210 55 307 86 295 283 535 485 589 68 18 77 19 142 5z m1278
-5 c157 -35 321 -187 423 -389 61 -122 116 -326 131 -482 l6 -63 -550 0 -549
0 -5 33 c-2 17 -9 73 -15 123 -6 50 -20 126 -31 169 -11 43 -20 87 -20 97 0
32 65 162 121 243 59 85 156 181 226 222 39 23 150 60 186 62 4 1 39 -6 77
-15z m1321 -13 c187 -71 364 -302 444 -576 28 -97 55 -248 55 -307 l0 -38
-549 0 -549 0 -6 68 c-10 100 -24 177 -48 275 l-22 88 57 112 c160 314 400
460 618 378z m794 -1106 c30 -30 32 -64 4 -99 l-20 -26 -2169 0 -2169 0 -20
26 c-28 35 -26 69 4 99 l24 25 2161 0 2161 0 24 -25z m-165 -304 c0 -19 -59
-51 -111 -61 -85 -16 -85 -16 -93 -213 -8 -192 -29 -320 -77 -452 -49 -135
-11 -125 -481 -125 l-399 0 -22 23 c-51 50 -127 350 -127 500 0 48 -4 62 -25
82 -26 27 -51 31 -89 14 -34 -16 -43 -47 -50 -164 -9 -162 -81 -406 -129 -440
-32 -22 -802 -22 -834 0 -48 34 -120 278 -129 440 -7 117 -16 148 -50 164 -38
17 -62 13 -88 -12 -20 -20 -24 -37 -29 -126 -4 -57 -14 -137 -23 -179 -22
-107 -80 -264 -105 -284 -19 -17 -55 -18 -419 -18 -467 0 -430 -10 -479 125
-48 132 -69 260 -77 452 -8 197 -8 197 -93 213 -52 10 -111 42 -111 61 0 5
778 9 2020 9 1242 0 2020 -4 2020 -9z"/>
<path d="M2338 4503 c-84 -80 -158 -201 -212 -351 -28 -80 -27 -113 7 -137 29
-20 80 -19 100 3 8 9 30 53 47 97 46 117 92 194 160 269 33 37 60 76 60 87 0
29 -53 79 -85 79 -17 0 -43 -16 -77 -47z"/>
<path d="M3634 4531 c-40 -24 -113 -111 -158 -187 -49 -84 -106 -230 -106
-270 0 -44 30 -74 73 -74 41 0 67 27 92 95 38 106 104 220 165 282 69 72 77
107 35 148 -29 30 -59 32 -101 6z"/>
<path d="M4888 4524 c-47 -33 -116 -121 -161 -204 -47 -87 -97 -214 -97 -249
0 -55 78 -92 123 -58 9 6 33 53 52 102 50 123 89 189 157 262 67 72 75 107 33
148 -31 32 -61 32 -107 -1z"/>
</g>
</svg>
