<?xml version="1.0" encoding="utf-8"?>
<!-- Generator: Adobe Illustrator 28.0.0, SVG Export Plug-In . SVG Version: 6.00 Build 0)  -->
<svg version="1.1" id="Layer_1" xmlns="http://www.w3.org/2000/svg" xmlns:xlink="http://www.w3.org/1999/xlink" x="0px" y="0px"
	 viewBox="0 0 2000 2000" style="enable-background:new 0 0 2000 2000;" xml:space="preserve">
<style type="text/css">
	.st0{display:none;}
	.st1{display:inline;fill:#D6D6D6;}
	.st2{display:inline;}
	.st3{display:inline;fill:#FFFFFF;stroke:#000000;}
	.st4{display:inline;fill:#FFFFFF;stroke:#000000;stroke-width:9;}
	.st5{fill:#D6D6D6;}
	.st6{fill:#969798;}
	.st7{fill:#FFFFFF;stroke:#000000;stroke-miterlimit:10;}
	.st8{fill:#FFFFFF;}
	.st9{opacity:0.4;fill:#FFFFFF;}
	.st10{fill:#969798;stroke:#000000;stroke-width:3;stroke-miterlimit:10;}
	.st11{fill:#FFFFFF;stroke:#000000;stroke-width:7;stroke-miterlimit:10;}
	.st12{fill:none;stroke:#000000;stroke-width:10;stroke-miterlimit:10;}
	.st13{opacity:0.8;fill:#FFFFFF;}
	.st14{fill:none;stroke:#000000;stroke-width:7;stroke-miterlimit:10;}
	.st15{fill:#FFFFFF;stroke:#000000;stroke-width:10;stroke-miterlimit:10;}
</style>
<g id="Layer_1_00000100380022038226514930000002706622211986843046_" class="st0">
	<path class="st1" d="M2310.8,310.2l1,22.7l-70.3,10.2l-2.8,369l13.2,11.7l-14.3,21.6l0.2,642.2c0,0,396.7,199.6,396.7,199.2
		s113-30.9,113-30.9l77.8-1105.1c0,0-180.7-131.8-180.5-132C2645,318.7,2310.9,310.9,2310.8,310.2z"/>
	<g transform="translate(0.000000,2000.000000) scale(0.100000,-0.100000)" class="st2">
		<path d="M9750,17500c-18,0-4018-1998-4044-2019c-15-12-16-525-16-5417c0-4930,1-5404,16-5419c9-8,65-39,125-68l109-52v-122
			c0-121,0-122,27-141c43-30,3516-1762,3533-1762c8,0,124,54,257,121l242,121l112-56c61-31,123-56,138-56c28,0,4040,2002,4053,2023
			c4,6,8,1486,8,3288c0,3108-1,3277-18,3291c-9,8-43,28-75,43c-31,15-59,31-62,35c-2,3,25,21,60,38c35,18,71,39,79,48
			c14,14,16,209,16,1918c0,1699-2,1905-15,1916c-26,22-528,270-544,270c-9,0-52-18-96-40s-83-40-87-40s-9,42-10,93l-3,92l-1895,948
			C10618,17074,9759,17500,9750,17500z M9750,17366c9,3,3594-1793,3597-1802c1-5-863-442-1922-971l-1925-963l-1800,901
			c-990,495-1800,903-1800,907s865,439,1923,967C8880,16933,9747,17365,9750,17366z M13407,15444l33,16v-53v-52l-1861-930
			c-1023-512-1867-937-1875-946c-12-14-14-269-12-1925l3-1909l79-41c86-45,86-42,1-82c-27-13-58-31-67-39c-17-15-18-181-18-3259
			V2980l-60-30c-33-16-62-30-65-30s-4,2386-3,5301l3,5302l1905,953C12518,15000,13390,15435,13407,15444z M13750,15366
			c10,2,350-170,350-178c0-4-866-440-1924-969l-1924-963l-176,87c-97,48-176,91-176,95s865,439,1923,967
			C12880,14933,13747,15365,13750,15366z M14184,15080c3,0,6-810,6-1800v-1800l-60-30c-33-16-62-30-65-30s-5,262-5,582v582l-127,444
			c-141,494-137,486-211,463c-20-6-91-39-157-74l-120-62l-3-1125l-2-1125l-1555-778c-855-427-1559-777-1565-777c-7,0-10,583-10,1798
			v1798l1934,967C13308,14645,14181,15080,14184,15080z M13705,13340c8,0,4,14,125-412l110-388v-718v-718l-65-32l-65-32v709v708
			l-109,384c-60,211-112,396-116,411c-6,25-3,29,54,57C13672,13326,13702,13340,13705,13340z M14090,11200c13-9,13-11,0-20
			c-22-15-30-12-30,10S14068,11215,14090,11200z M14184,11080c3,0,6-1430,5-3177l-1-3178l-1924-960c-1058-528-1930-961-1939-963
			c-13-3-15,330-15,3170v3174l1562,781l1563,781l3-1836c2-1691,3-1837,19-1854c9-10,26-18,38-18c33,0,301,136,309,157
			c4,10,23,104,42,208c19,105,75,411,124,682l90,491v1147c0,668-4,1153-9,1163s-41,33-80,52c-39,18-68,37-64,41c5,4,67,37,140,73
			C14119,11050,14181,11080,14184,11080z M13503,10989c18-1,97-42,97-51c0-4-753-384-1674-844l-1675-838l-175,87
			c-97,48-176,91-176,95c0,5,23,19,50,32l51,24l113-57c62-31,123-57,135-57s746,362,1631,805C12766,10628,13496,10990,13503,10989z
			 M13803,10844c26-14,47-28,47-32c0-5-22-19-49-31l-48-23l-52,23c-28,13-51,27-51,31s13,14,30,23
			C13744,10868,13753,10869,13803,10844z M13930,10700c7,0,10-377,10-1062l-1-1063l-122-670l-122-670l-53-28c-35-19-52-24-52-15
			c0,7,50,285,110,618l110,604v1116v1116l55,27C13896,10688,13925,10700,13930,10700z"/>
	</g>
	<path class="st3" d="M2685.4,121l-359.8,179.9l385.2,194l359.3-180.8L2685.4,121z"/>
	<path class="st3" d="M2285.6,320.9l-35.2,17.8l384.2,193.4l35.4-17.9L2285.6,320.9z"/>
	<path class="st4" d="M665.4,443.1"/>
	<path class="st4" d="M1025.2,263.2"/>
</g>
<polyline class="st5" points="1319,469 1352.7,451.8 1355.2,1541.9 966.4,1738.3 966.4,1718.8 966.4,648.4 1323.5,466.7 "/>
<polyline class="st6" points="1017.9,276.7 985.6,259.7 983.2,1343.7 1356.3,1538.9 1356.3,1519.5 1353.7,439.5 1013.6,274.4 "/>
<polyline class="st7" points="957.1,1714.7 1353.6,1520.6 984.8,1341.6 "/>
<polyline class="st8" points="984.8,1341.6 583.7,1533.4 957.1,1714.7 "/>
<g>
	<polygon class="st9" points="1339.1,1326.8 983.8,1154.4 597.6,1339.2 957.2,1513.8 	"/>
	<polygon class="st8" points="952.8,1516.6 952.8,1528.8 1339.1,1343 1339.1,1328.7 	"/>
	<line class="st10" x1="1339.1" y1="1326.8" x2="968.4" y2="1508.3"/>
</g>
<polygon class="st11" points="1353.7,439.5 984.9,255.7 583.8,452.6 957.2,638.8 "/>
<path class="st12" d="M956.1,637"/>
<polygon class="st13" points="1356.3,851.3 987.4,672.3 586.4,864.1 959.8,1045.4 "/>
<g>
	<polygon class="st9" points="1335,1100.4 979.8,928 593.6,1112.8 953.2,1287.4 	"/>
	<polygon class="st8" points="948.7,1290.2 948.7,1302.4 1335,1116.6 1335,1102.3 	"/>
	<line class="st10" x1="1335" y1="1100.4" x2="964.3" y2="1281.9"/>
</g>
<polygon class="st12" points="951.3,645.3 951.3,1741.6 600,1567.3 598.5,1543.6 581,1532.7 581,460.6 "/>
<polyline class="st14" points="1345.7,439.5 984.9,259.7 591.6,452.6 "/>
<line class="st12" x1="1366" y1="470.1" x2="1400.5" y2="487.1"/>
<path class="st12" d="M1363.5,1523.7"/>
<g id="freezer_door">
	<polyline class="st15" points="1363.5,1523.7 1761.2,1709.7 1761.2,1691.2 1761.3,1098.7 1761.3,1065.2 1366,880.5 1363.5,1523.7 	
		"/>
	<polygon class="st12" points="1377.4,875.3 1763.1,1069.5 1811,1045 1416,855.9 	"/>
	<polygon class="st12" points="1817.2,1074.6 1817.2,1052.6 1770.5,1073.4 1770.5,1221.3 1771.2,1689.1 1771.2,1709.7 1818,1690.3 
		1818,1542.5 	"/>
</g>
<g id="fridge_door">
	<polygon class="st12" points="1372.6,462.6 1763.2,666.6 1806.8,640.7 1413.3,442.9 	"/>
	<polygon class="st15" points="1812.5,674.8 1812.5,648.9 1765.7,673.3 1765.7,860.1 1765.7,1021.1 1765.7,1047 1812.5,1022.6 
		1812.5,835.8 	"/>
	<polygon class="st15" points="1366,646.7 1366,855.9 1755.8,1047.2 1756,1018 1756,857 1756,670.7 1366,470.1 1366,511.3 	"/>
</g>
<polyline class="st12" points="1322.1,464.7 1356.6,447.4 1359.1,1544.1 961.3,1741.6 961.3,1722 961.3,645.2 1326.8,462.4 "/>
<path class="st12" d="M1941.7,1015.5"/>
<path class="st12" d="M1941.7,632.1"/>
<polygon class="st12" points="1355.2,644.9 1355.2,854.1 968.9,1045.4 968.7,1016.2 968.7,855.2 968.7,664.1 1355.2,468.4 
	1355.2,509.5 "/>
<polygon class="st12" points="1352,1528.3 968.8,1714.7 968.8,1695.2 968.8,1102.7 968.8,1069.2 1355.2,879.5 "/>
<polygon class="st5" points="966.4,659.7 966.4,648.4 1351.5,455.5 1351.5,464.6 "/>
<polygon class="st13" points="966.4,1052.1 966.4,1064.9 1352.7,875.2 1352.7,860.9 "/>
</svg>
