<?xml version="1.0" encoding="utf-8"?>
<!-- Generator: Adobe Illustrator 27.9.0, SVG Export Plug-In . SVG Version: 6.00 Build 0)  -->
<svg version="1.1" id="Layer_1" xmlns="http://www.w3.org/2000/svg" xmlns:xlink="http://www.w3.org/1999/xlink" x="0px" y="0px"
	 viewBox="0 0 2000 2000" style="enable-background:new 0 0 2000 2000;" xml:space="preserve">
<style type="text/css">
	.st0{fill:#D6D6D6;}
	.st1{fill:#FFFFFF;stroke:#000000;}
</style>
<path class="st0" d="M650.6,452.5l1,22.7l-70.3,10.2l-2.8,369l13.2,11.7l-14.3,21.6l0.2,642.2c0,0,396.7,199.6,396.7,199.2
	s113-30.9,113-30.9l77.8-1105.1c0,0-180.7-131.8-180.5-132C984.8,461,650.7,453.2,650.6,452.5z"/>
<g transform="translate(0.000000,2000.000000) scale(0.100000,-0.100000)">
	<path d="M8340,16553l-1895-948l-3-92c-1-51-6-93-10-93s-43,18-87,40s-87,40-96,40c-16,0-518-248-544-270c-13-11-15-217-15-1916
		c0-1709,2-1904,16-1918c8-9,44-30,79-48c35-17,62-35,60-38c-3-4-31-20-62-35c-32-15-66-35-75-43c-17-14-18-183-18-3291
		c0-1802,4-3282,8-3288c13-21,4025-2023,4053-2023c15,0,77,25,138,56l112,56l242-121c133-67,249-121,257-121
		c17,0,3490,1732,3533,1762c27,19,27,20,27,141v122l109,52c60,29,116,60,125,68c15,15,16,489,16,5419c0,4892-1,5405-16,5417
		c-26,21-4026,2019-4044,2019C10241,17500,9382,17074,8340,16553z M12177,16405c1058-528,1923-963,1923-967s-810-412-1800-907
		l-1800-901l-1925,963c-1059,529-1923,966-1922,971c3,9,3588,1805,3597,1802C10253,17365,11120,16933,12177,16405z M8530,14476
		l1905-953l3-5302c1-2915,0-5301-3-5301s-32,14-65,30l-60,30v3244c0,3078-1,3244-18,3259c-9,8-40,26-67,39c-85,40-85,37,1,82l79,41
		l3,1909c2,1656,0,1911-12,1925c-8,9-852,434-1875,946l-1861,930v52v53l33-16C6610,15435,7482,15000,8530,14476z M8177,14405
		c1058-528,1923-963,1923-967s-79-47-176-95l-176-87l-1924,963c-1058,529-1924,965-1924,969c0,8,340,180,350,178
		C6253,15365,7120,14933,8177,14405z M7756,14113l1934-967v-1798c0-1215-3-1798-10-1798c-6,0-710,350-1565,777l-1555,778l-2,1125
		l-3,1125l-120,62c-66,35-137,68-157,74c-74,23-70,31-211-463l-127-444v-582c0-320-2-582-5-582s-32,14-65,30l-60,30v1800
		c0,990,3,1800,6,1800S6692,14645,7756,14113z M6361,13309c57-28,60-32,54-57c-4-15-56-200-116-411l-109-384v-708v-709l-65,32
		l-65,32v718v718l110,388c121,426,117,412,125,412C6298,13340,6328,13326,6361,13309z M5940,11190c0-22-8-25-30-10c-13,9-13,11,0,20
		C5932,11215,5940,11212,5940,11190z M5953,11014c73-36,135-69,140-73c4-4-25-23-64-41c-39-19-75-42-80-52s-9-495-9-1163V8538
		l90-491c49-271,105-577,124-682c19-104,38-198,42-208c8-21,276-157,309-157c12,0,29,8,38,18c16,17,17,163,19,1854l3,1836l1563-781
		l1562-781V5972c0-2840-2-3173-15-3170c-9,2-881,435-1939,963l-1924,960l-1,3178c-1,1747,2,3177,5,3177S5881,11050,5953,11014z
		 M8120,10185c885-443,1619-805,1631-805s73,26,135,57l113,57l51-24c27-13,50-27,50-32c0-4-79-47-176-95l-175-87l-1675,838
		c-921,460-1674,840-1674,844c0,9,79,50,97,51C6504,10990,7234,10628,8120,10185z M6320,10835c17-9,30-19,30-23s-23-18-51-31l-52-23
		l-48,23c-27,12-49,26-49,31c0,4,21,18,47,32C6247,10869,6256,10868,6320,10835z M6135,10673l55-27V9530V8414l110-604
		c60-333,110-611,110-618c0-9-17-4-52,15l-53,28l-122,670l-122,670l-1,1063c0,685,3,1062,10,1062C6075,10700,6104,10688,6135,10673z
		"/>
</g>
<path class="st1" d="M1025.2,263.3L665.4,443.2l385.2,194l359.3-180.8L1025.2,263.3z"/>
<path class="st1" d="M625.4,463.2L590.2,481l384.2,193.4l35.4-17.9L625.4,463.2z"/>
</svg>
