<?xml version="1.0" encoding="utf-8"?>
<!-- Generator: Adobe Illustrator 27.9.0, SVG Export Plug-In . SVG Version: 6.00 Build 0)  -->
<svg version="1.1" xmlns="http://www.w3.org/2000/svg" xmlns:xlink="http://www.w3.org/1999/xlink" x="0" y="0"
	 viewBox="0 0 315.2 585.8" width="100%" height="100%" style="enable-background:new 0 0 315.2 585.8;" xml:space="preserve">
<style type="text/css">
	.st0{display:none;}
	.st1{display:inline;}
	.st2{display:inline;fill:none;stroke:#000000;stroke-width:7;stroke-miterlimit:10;}
	.st3{fill:none;stroke:#000000;stroke-width:7;stroke-miterlimit:10;}
	.st4{fill:#00AEEF;stroke:#000000;stroke-width:7;stroke-miterlimit:10;}
	.st5{fill:#FFFFFF;stroke:#000000;stroke-width:7;stroke-miterlimit:10;}
</style>
<g id="_x32_" class="st0">
	<g class="st1">
		<path d="M459.8,94L358.1,36.4v-63.1c0-9-6.3-16.8-15.2-18.6l-357.3-74.2c-5.6-1.2-11.5,0.3-15.9,3.9c-4.4,3.6-7,9.1-7,14.8v66.7
			l-139.6,150.3c-3.3,3.5-5.1,8.2-5.1,13v425.1c0,8.5,5.6,16,13.8,18.3l375.9,106.8c5,1.4,10.4,0.7,14.9-1.9L452.2,541
			c4.4-0.4,8.5-2.3,11.6-5.4c3.5-3.5,5.6-8.4,5.6-13.5V110.6C469.4,103.7,465.7,97.4,459.8,94z M418.6,114.5l-176.3,79.9L336,67.7
			L418.6,114.5z M0.8-77.5L320-11.2v45L0.8-32.5L0.8-77.5L0.8-77.5z M203.4,638.5l-347.3-98.7V143.4l347.3,82.3V638.5z M209,207.4
			l-343.2-81.3L-4.3-13.8c0.1-0.1,0.1-0.2,0.2-0.3l325.2,67.5c0.2,0.5,0.4,1,0.6,1.5L209,207.4z M431.3,509.1L222.5,633.2V224.3
			l208.9-94.6L431.3,509.1L431.3,509.1z"/>
		<path d="M334.2,865.5c4.3,0.8,7.5-1.3,7.7-6l1.9-47.7l0.7,0.1l15.7,39.3c2.3,5.7,4.7,7.7,8.7,8.5c3.9,0.7,6.4-0.3,9.1-5.1
			l18.5-32.9l0.7,0.1l-1.9,47.7c-0.2,4.7,2.9,8,7.3,8.8c4.3,0.8,7.5-1.3,7.7-6l2.9-71.8c0.2-5.6-3-9.7-8.6-10.8
			c-4.8-0.9-7.1,1.1-9.8,6l-24.5,44l-0.6-0.1l-21.1-52.6c-2.4-5.9-4.5-8.7-9.3-9.6c-5.5-1-9.2,1.7-9.4,7.4l-2.9,71.8
			C326.7,861.4,329.8,864.7,334.2,865.5z"/>
		<path d="M438.6,885.1c4.7,0.9,8.3-1.5,8.5-6.4l2.9-72.4c0.2-4.9-3.1-8.6-7.8-9.5c-4.7-0.9-8.2,1.6-8.4,6.4l-2.9,72.4
			C430.7,880.5,434,884.2,438.6,885.1z"/>
		<path d="M475.5,891.4l45.8,8.6c5.1,1,8.4-1.3,8.6-5.2c0.2-4-2.9-7.4-8-8.3l-36.8-6.9c-0.5-0.1-0.8-0.4-0.8-0.9l2.7-65.4
			c0.2-4.9-3.1-8.6-7.8-9.5c-4.7-0.9-8.2,1.5-8.4,6.4l-2.9,72.1C467.5,886.9,470.6,890.5,475.5,891.4z"/>
		<path d="M550.4,906.1c4.7,0.9,8.2-1.5,8.4-6.4l0.7-16.6l15.4-14l21.3,41.1c1.7,3.2,4.2,5.3,7.5,5.9c4.7,0.9,8-1.7,8.1-5.7
			c0.1-1.4-0.4-3.3-1.3-5l-24.5-46l22.8-19.7c1.3-1.2,2-2.7,2.1-4.6c0.2-3.8-3-7.1-7-7.9c-2.5-0.5-4.9,0.2-6.7,2l-37,33.4l1.4-35.3
			c0.2-4.9-3.1-8.6-7.8-9.5c-4.7-0.9-8.2,1.5-8.4,6.4l-2.9,72.4C542.4,901.5,545.7,905.2,550.4,906.1z"/>
	</g>
	<polygon class="st2" points="977,406.1 855.8,345.7 724,410.4 846.7,471.6 	"/>
	<line class="st2" x1="977" y1="406.1" x2="977" y2="56.4"/>
	<polyline class="st2" points="846.5,471.6 846.5,121.9 724,62.5 724,412.2 	"/>
	<polygon class="st2" points="978.6,401.4 978.6,51.7 846.5,118.1 907.7,-21.8 978.6,51.7 856.1,-4 785.3,-77.5 724,62.5 856.1,-4 
		856.1,345.7 	"/>
	<path class="st2" d="M785.3-77.5"/>
	<path class="st2" d="M785.3-77.5"/>
	<polygon class="st2" points="907.7,-21.8 785.3,-77.5 785.3,-112.4 907.7,-59.1 	"/>
</g>
<g id="Layer_2">
	<g>
		<polygon class="st3" points="149.8,446 149.8,96.3 28.9,152.7 28.9,506.4 		"/>
		<polygon class="st3" points="281.9,510.7 149.8,446 152.5,100.8 280.4,170.4 		"/>
		<polygon class="st4" points="28.9,152.7 101.8,106.6 216.4,59.8 149.8,96.3 		"/>
		<path class="st4" d="M215.8,54.9V31c0-3.2-3.4-5.3-6.5-4L104.6,69.9c-1.7,0.7-2.8,2.3-2.8,4v29.9L215.8,54.9z"/>
		<polygon class="st4" points="281.2,517.3 166.2,571.9 164.7,226.8 281.2,172.9 		"/>
		<polygon class="st4" points="28.9,509 159.4,571.9 159.4,224.9 28.9,159.3 		"/>
		<polygon class="st5" points="276.4,168.2 159.4,218 32.5,154.8 148.8,100.8 		"/>
		<polygon class="st4" points="280.4,166.1 159.4,222.3 101.8,106.6 216.4,59.8 		"/>
		<circle class="st5" cx="190" cy="133" r="26.4"/>
		<circle class="st5" cx="199.4" cy="124.6" r="26.4"/>
		<line class="st5" x1="191.1" y1="149.6" x2="187.6" y2="159.3"/>
		<line class="st5" x1="181" y1="143.5" x2="175.6" y2="152.8"/>
	</g>
	<line class="st5" x1="175.6" y1="135.9" x2="166.6" y2="145"/>
	<line class="st5" x1="173" y1="128.6" x2="163.7" y2="133"/>
</g>
</svg>
